# xmcd
#
# Track frame offsets:
#	150
#	19413
#	41696
#	58380
#	72147
#	90159
#	113328
#	133485
#	154571
#	187027
#
# Disc length: 2733 seconds
# Revision: 0
# Processed by: cddbd v1.5.2PL0 Copyright (c) Steve Scherf et al.
# Submitted via: dBpowerAMP V12.0
#
DISCID=850aab0a
DTITLE=Halftime String Band - Are We There Yet
DYEAR=2012
DGENRE=Bluegrass
TTITLE0=Weary Man Blues
TTITLE1=Down in the Mouth
TTITLE2=I'm Coming Home
TTITLE3=21 Stems
TTITLE4=Run From Hell
TTITLE5=Summertime
TTITLE6=E.M.D.
TTITLE7=Big River
TTITLE8=Wish to the Lord
TTITLE9=My Bucket's Got a Hole in it
EXTD=
EXTT0=
EXTT1=
EXTT2=
EXTT3=
EXTT4=
EXTT5=
EXTT6=
EXTT7=
EXTT8=
EXTT9=
PLAYORDER=
